<?xml version="1.0" encoding="UTF-8"?>
<svg width="50" height="60" version="1.1" viewBox="0 0 50 60" xmlns="http://www.w3.org/2000/svg">
    <!-- Yellow Hat -->
    <path d="M15,5 C25,5 35,5 35,15 C35,25 25,25 15,25 C5,25 5,15 5,15 C5,5 15,5 15,5" fill="#FFD700"/>
    <path d="M10,15 C10,10 20,10 30,10 C40,10 40,15 40,15" fill="#FFA500" stroke="#FFA500" stroke-width="1"/>
    
    <!-- Face -->
    <circle cx="25" cy="20" r="8" fill="#FFE4C4"/>
    
    <!-- Eyes -->
    <circle cx="22" cy="18" r="1.5" fill="#000"/>
    <circle cx="28" cy="18" r="1.5" fill="#000"/>
    
    <!-- Blush -->
    <circle cx="20" cy="22" r="2" fill="#FFB6C1" opacity="0.6"/>
    <circle cx="30" cy="22" r="2" fill="#FFB6C1" opacity="0.6"/>
    
    <!-- Smile -->
    <path d="M22,24 Q25,26 28,24" stroke="#000" fill="none" stroke-width="1"/>
    
    <!-- Red Dress -->
    <path d="M10,30 C10,30 15,25 25,25 C35,25 40,30 40,30 L40,55 C40,55 35,60 25,60 C15,60 10,55 10,55 Z" fill="#FF0000"/>
    
    <!-- White Collar -->
    <path d="M15,30 C15,30 20,28 25,28 C30,28 35,30 35,30" fill="#FFFFFF" stroke="#000" stroke-width="0.5"/>
    
    <!-- Arms -->
    <path d="M5,35 C5,35 10,40 10,45" stroke="#FF0000" fill="none" stroke-width="3"/>
    <path d="M40,35 C40,35 35,40 35,45" stroke="#FF0000" fill="none" stroke-width="3"/>
    
    <!-- Legs -->
    <path d="M20,55 L20,60" stroke="#0000FF" fill="none" stroke-width="3"/>
    <path d="M30,55 L30,60" stroke="#0000FF" fill="none" stroke-width="3"/>
</svg> 